# xmcd CD database file
#
# Track frame offsets:
#	150
#	11606
#	28136
#	47994
#	74750
#	92279
#	107750
#	124700
#	138193
#
# Disc length: 2153 seconds
#
# Revision: 0
# Processed by: cddbd v1.5.1PL2 Copyright (c) Steve Scherf et al.
# Submitted via: CDex 1.51
#
DISCID=77086709
DTITLE=jp orbit - heavy
DYEAR=1999
DGENRE=Jazz
TTITLE0=grande supreme
TTITLE1=action
TTITLE2=these chances
TTITLE3=loneliest cat
TTITLE4=hometown
TTITLE5=strange
TTITLE6=willow weep for me
TTITLE7=paraphernalia
TTITLE8=holiday
EXTD=YEAR: 1999
EXTT0=
EXTT1=
EXTT2=
EXTT3=
EXTT4=
EXTT5=
EXTT6=
EXTT7=
EXTT8=
PLAYORDER=
